<svg xmlns="http://www.w3.org/2000/svg" width="1440" height="900"><path d="M720,555L704,736L900,744Z" fill="#8e9ba4" stroke="#8e9ba4" stroke-width="1.51"/><path d="M900,744L937,568L720,555Z" fill="#738ea6" stroke="#738ea6" stroke-width="1.51"/><path d="M512,538L529,751L704,736Z" fill="#b1a893" stroke="#b1a893" stroke-width="1.51"/><path d="M704,736L741,948L900,744Z" fill="#a6adaf" stroke="#a6adaf" stroke-width="1.51"/><path d="M529,751L741,948L704,736Z" fill="#bcb6a4" stroke="#bcb6a4" stroke-width="1.51"/><path d="M931,341L733,329L720,555Z" fill="#b2a485" stroke="#b2a485" stroke-width="1.51"/><path d="M1112,762L1095,552L937,568Z" fill="#658fb3" stroke="#658fb3" stroke-width="1.51"/><path d="M1112,762L937,568L900,744Z" fill="#6a92b5" stroke="#6a92b5" stroke-width="1.51"/><path d="M720,555L512,538L704,736Z" fill="#9a9a94" stroke="#9a9a94" stroke-width="1.51"/><path d="M733,329L512,538L720,555Z" fill="#b7a683" stroke="#b7a683" stroke-width="1.51"/><path d="M741,948L932,944L900,744Z" fill="#a4b1bb" stroke="#a4b1bb" stroke-width="1.51"/><path d="M932,944L1112,762L900,744Z" fill="#85a4bf" stroke="#85a4bf" stroke-width="1.51"/><path d="M931,341L720,555L937,568Z" fill="#919697" stroke="#919697" stroke-width="1.51"/><path d="M1095,552L931,341L937,568Z" fill="#8292a0" stroke="#8292a0" stroke-width="1.51"/><path d="M932,944L1120,943L1112,762Z" fill="#9bb3c7" stroke="#9bb3c7" stroke-width="1.51"/><path d="M1096,1139L1120,943L932,944Z" fill="#9fb5c9" stroke="#9fb5c9" stroke-width="1.51"/><path d="M733,329L494,354L512,538Z" fill="#d3b471" stroke="#d3b471" stroke-width="1.51"/><path d="M309,951L500,969L529,751Z" fill="#e8cc96" stroke="#e8cc96" stroke-width="1.51"/><path d="M529,751L500,969L741,948Z" fill="#d6c6a3" stroke="#d6c6a3" stroke-width="1.51"/><path d="M741,948L920,1165L932,944Z" fill="#a7b4bd" stroke="#a7b4bd" stroke-width="1.51"/><path d="M295,727L529,751L512,538Z" fill="#c0ac88" stroke="#c0ac88" stroke-width="1.51"/><path d="M943,150L703,144L733,329Z" fill="#cba76d" stroke="#cba76d" stroke-width="1.51"/><path d="M1095,552L1112,338L931,341Z" fill="#a0a098" stroke="#a0a098" stroke-width="1.51"/><path d="M1336,560L1112,338L1095,552Z" fill="#9aa3a8" stroke="#9aa3a8" stroke-width="1.51"/><path d="M1327,737L1095,552L1112,762Z" fill="#83a2be" stroke="#83a2be" stroke-width="1.51"/><path d="M494,354L314,539L512,538Z" fill="#d1b16f" stroke="#d1b16f" stroke-width="1.51"/><path d="M314,539L295,727L512,538Z" fill="#b39e7f" stroke="#b39e7f" stroke-width="1.51"/><path d="M733,329L537,127L494,354Z" fill="#e9bc5c" stroke="#e9bc5c" stroke-width="1.51"/><path d="M943,150L733,329L931,341Z" fill="#c1a87a" stroke="#c1a87a" stroke-width="1.51"/><path d="M500,969L702,1164L741,948Z" fill="#cec3a9" stroke="#cec3a9" stroke-width="1.51"/><path d="M1102,170L943,150L931,341Z" fill="#b69f7f" stroke="#b69f7f" stroke-width="1.51"/><path d="M702,1164L920,1165L741,948Z" fill="#b6b9b6" stroke="#b6b9b6" stroke-width="1.51"/><path d="M1329,939L1327,737L1112,762Z" fill="#a7bbcc" stroke="#a7bbcc" stroke-width="1.51"/><path d="M1329,939L1112,762L1120,943Z" fill="#acbfce" stroke="#acbfce" stroke-width="1.51"/><path d="M1327,737L1336,560L1095,552Z" fill="#7e9fbd" stroke="#7e9fbd" stroke-width="1.51"/><path d="M1112,338L1102,170L931,341Z" fill="#bdab87" stroke="#bdab87" stroke-width="1.51"/><path d="M920,1165L1096,1139L932,944Z" fill="#96afc5" stroke="#96afc5" stroke-width="1.51"/><path d="M1327,328L1102,170L1112,338Z" fill="#ccb68c" stroke="#ccb68c" stroke-width="1.51"/><path d="M500,969L516,1143L702,1164Z" fill="#dbc9a2" stroke="#dbc9a2" stroke-width="1.51"/><path d="M302,1128L516,1143L500,969Z" fill="#eacd97" stroke="#eacd97" stroke-width="1.51"/><path d="M494,354L332,327L314,539Z" fill="#e0b460" stroke="#e0b460" stroke-width="1.51"/><path d="M314,539L113,561L295,727Z" fill="#b29678" stroke="#b29678" stroke-width="1.51"/><path d="M324,162L332,327L494,354Z" fill="#f7bf49" stroke="#f7bf49" stroke-width="1.51"/><path d="M295,727L309,951L529,751Z" fill="#d8bc8d" stroke="#d8bc8d" stroke-width="1.51"/><path d="M713,-38L537,127L703,144Z" fill="#dba352" stroke="#dba352" stroke-width="1.51"/><path d="M703,144L537,127L733,329Z" fill="#deb05e" stroke="#deb05e" stroke-width="1.51"/><path d="M1327,737L1511,745L1336,560Z" fill="#9db4c9" stroke="#9db4c9" stroke-width="1.51"/><path d="M1298,1128L1329,939L1120,943Z" fill="#b7c7d2" stroke="#b7c7d2" stroke-width="1.51"/><path d="M1336,560L1327,328L1112,338Z" fill="#b9b2a1" stroke="#b9b2a1" stroke-width="1.51"/><path d="M1096,1139L1298,1128L1120,943Z" fill="#aec0cf" stroke="#aec0cf" stroke-width="1.51"/><path d="M920,1165L1298,1128L1096,1139Z" fill="#a5bacb" stroke="#a5bacb" stroke-width="1.51"/><path d="M537,127L324,162L494,354Z" fill="#f6bd48" stroke="#f6bd48" stroke-width="1.51"/><path d="M108,335L113,561L314,539Z" fill="#cd9f62" stroke="#cd9f62" stroke-width="1.51"/><path d="M516,1143L126,1146L702,1164Z" fill="#eace97" stroke="#eace97" stroke-width="1.51"/><path d="M309,951L302,1128L500,969Z" fill="#e9c893" stroke="#e9c893" stroke-width="1.51"/><path d="M114,940L302,1128L309,951Z" fill="#e8bf8c" stroke="#e8bf8c" stroke-width="1.51"/><path d="M943,150L914,-32L703,144Z" fill="#c09668" stroke="#c09668" stroke-width="1.51"/><path d="M537,127L494,-54L324,162Z" fill="#f1ae3a" stroke="#f1ae3a" stroke-width="1.51"/><path d="M1128,-58L914,-32L943,150Z" fill="#b38a6d" stroke="#b38a6d" stroke-width="1.51"/><path d="M1128,-58L943,150L1102,170Z" fill="#bb9676" stroke="#bb9676" stroke-width="1.51"/><path d="M914,-32L713,-38L703,144Z" fill="#c9955b" stroke="#c9955b" stroke-width="1.51"/><path d="M108,335L314,539L332,327Z" fill="#dfad58" stroke="#dfad58" stroke-width="1.51"/><path d="M295,727L114,940L309,951Z" fill="#e2bb8a" stroke="#e2bb8a" stroke-width="1.51"/><path d="M113,561L112,746L295,727Z" fill="#be9b79" stroke="#be9b79" stroke-width="1.51"/><path d="M1329,939L1511,745L1327,737Z" fill="#b6c6d2" stroke="#b6c6d2" stroke-width="1.51"/><path d="M1336,560L1515,372L1327,328Z" fill="#c5bda9" stroke="#c5bda9" stroke-width="1.51"/><path d="M1534,933L1511,745L1329,939Z" fill="#cad4da" stroke="#cad4da" stroke-width="1.51"/><path d="M1327,328L1336,133L1102,170Z" fill="#d4b589" stroke="#d4b589" stroke-width="1.51"/><path d="M1516,132L1336,133L1327,328Z" fill="#e3c08e" stroke="#e3c08e" stroke-width="1.51"/><path d="M1511,745L1545,567L1336,560Z" fill="#98b0c7" stroke="#98b0c7" stroke-width="1.51"/><path d="M112,746L114,940L295,727Z" fill="#d5ad81" stroke="#d5ad81" stroke-width="1.51"/><path d="M1545,567L1515,372L1336,560Z" fill="#b4b9b7" stroke="#b4b9b7" stroke-width="1.51"/><path d="M113,561L-67,562L112,746Z" fill="#b48c6f" stroke="#b48c6f" stroke-width="1.51"/><path d="M120,174L108,335L332,327Z" fill="#f3b23d" stroke="#f3b23d" stroke-width="1.51"/><path d="M324,162L120,174L332,327Z" fill="#f2b13c" stroke="#f2b13c" stroke-width="1.51"/><path d="M713,-38L494,-54L537,127Z" fill="#e3a144" stroke="#e3a144" stroke-width="1.51"/><path d="M713,-260L494,-54L713,-38Z" fill="#db9b4a" stroke="#db9b4a" stroke-width="1.51"/><path d="M1732,748L1723,529L1545,567Z" fill="#96afc5" stroke="#96afc5" stroke-width="1.51"/><path d="M1515,1129L1534,933L1329,939Z" fill="#cfd8dc" stroke="#cfd8dc" stroke-width="1.51"/><path d="M1336,133L1128,-58L1102,170Z" fill="#c9a27b" stroke="#c9a27b" stroke-width="1.51"/><path d="M914,-32L908,-257L713,-38Z" fill="#bf8d60" stroke="#bf8d60" stroke-width="1.51"/><path d="M142,-60L120,174L324,162Z" fill="#ec9e2b" stroke="#ec9e2b" stroke-width="1.51"/><path d="M302,1128L126,1146L516,1143Z" fill="#e9c490" stroke="#e9c490" stroke-width="1.51"/><path d="M114,940L126,1146L302,1128Z" fill="#e7bb88" stroke="#e7bb88" stroke-width="1.51"/><path d="M1298,1128L1515,1129L1329,939Z" fill="#c8d2d9" stroke="#c8d2d9" stroke-width="1.51"/><path d="M1725,1166L1515,1129L1298,1128Z" fill="#cfd8dc" stroke="#cfd8dc" stroke-width="1.51"/><path d="M108,335L-67,562L113,561Z" fill="#c9955c" stroke="#c9955c" stroke-width="1.51"/><path d="M112,746L-69,744L114,940Z" fill="#d5a67b" stroke="#d5a67b" stroke-width="1.51"/><path d="M114,940L-99,1128L126,1146Z" fill="#e5b281" stroke="#e5b281" stroke-width="1.51"/><path d="M-73,330L-67,562L108,335Z" fill="#d89b4c" stroke="#d89b4c" stroke-width="1.51"/><path d="M-67,562L-69,744L112,746Z" fill="#bd9170" stroke="#bd9170" stroke-width="1.51"/><path d="M1336,133L1341,-60L1128,-58Z" fill="#d0a077" stroke="#d0a077" stroke-width="1.51"/><path d="M1515,372L1516,132L1327,328Z" fill="#eacd97" stroke="#eacd97" stroke-width="1.51"/><path d="M1705,172L1516,132L1515,372Z" fill="#e9c893" stroke="#e9c893" stroke-width="1.51"/><path d="M324,-258L296,-73L494,-54Z" fill="#eda02d" stroke="#eda02d" stroke-width="1.51"/><path d="M494,-54L296,-73L324,162Z" fill="#eda12e" stroke="#eda12e" stroke-width="1.51"/><path d="M1128,-58L908,-257L914,-32Z" fill="#b1876b" stroke="#b1876b" stroke-width="1.51"/><path d="M1516,132L1341,-60L1336,133Z" fill="#e1b283" stroke="#e1b283" stroke-width="1.51"/><path d="M1140,-240L908,-257L1128,-58Z" fill="#b98e6f" stroke="#b98e6f" stroke-width="1.51"/><path d="M908,-257L713,-260L713,-38Z" fill="#c89259" stroke="#c89259" stroke-width="1.51"/><path d="M1545,567L1723,529L1515,372Z" fill="#b7bab5" stroke="#b7bab5" stroke-width="1.51"/><path d="M1732,748L1545,567L1511,745Z" fill="#a5b9cc" stroke="#a5b9cc" stroke-width="1.51"/><path d="M1732,748L1511,745L1534,933Z" fill="#bdcbd5" stroke="#bdcbd5" stroke-width="1.51"/><path d="M1709,964L1732,748L1534,933Z" fill="#cbd5da" stroke="#cbd5da" stroke-width="1.51"/><path d="M-69,744L-88,926L114,940Z" fill="#dfaa7c" stroke="#dfaa7c" stroke-width="1.51"/><path d="M-270,729L-88,926L-69,744Z" fill="#d2a177" stroke="#d2a177" stroke-width="1.51"/><path d="M-67,562L-270,729L-69,744Z" fill="#bc906f" stroke="#bc906f" stroke-width="1.51"/><path d="M120,174L-73,330L108,335Z" fill="#f0a935" stroke="#f0a935" stroke-width="1.51"/><path d="M-65,148L-73,330L120,174Z" fill="#ec9e2b" stroke="#ec9e2b" stroke-width="1.51"/><path d="M1341,-60L1140,-240L1128,-58Z" fill="#c99a74" stroke="#c99a74" stroke-width="1.51"/><path d="M1515,1129L1709,964L1534,933Z" fill="#cfd8dc" stroke="#cfd8dc" stroke-width="1.51"/><path d="M908,-257L508,-273L713,-260Z" fill="#d19752" stroke="#d19752" stroke-width="1.51"/><path d="M713,-260L508,-273L494,-54Z" fill="#e3a041" stroke="#e3a041" stroke-width="1.51"/><path d="M135,-251L142,-60L296,-73Z" fill="#e99321" stroke="#e99321" stroke-width="1.51"/><path d="M296,-73L142,-60L324,162Z" fill="#eb9926" stroke="#eb9926" stroke-width="1.51"/><path d="M1723,529L1744,351L1515,372Z" fill="#cbc2ab" stroke="#cbc2ab" stroke-width="1.51"/><path d="M1516,132L1505,-69L1341,-60Z" fill="#e4af7e" stroke="#e4af7e" stroke-width="1.51"/><path d="M1732,748L1744,351L1723,529Z" fill="#a6b3bd" stroke="#a6b3bd" stroke-width="1.51"/><path d="M1341,-60L1308,-259L1140,-240Z" fill="#d09f77" stroke="#d09f77" stroke-width="1.51"/><path d="M1726,-36L1505,-69L1516,132Z" fill="#e4b07f" stroke="#e4b07f" stroke-width="1.51"/><path d="M142,-60L-65,148L120,174Z" fill="#e99422" stroke="#e99422" stroke-width="1.51"/><path d="M1744,351L1705,172L1515,372Z" fill="#ead099" stroke="#ead099" stroke-width="1.51"/><path d="M-88,926L-99,1128L114,940Z" fill="#e4af7e" stroke="#e4af7e" stroke-width="1.51"/><path d="M-271,933L-99,1128L-88,926Z" fill="#e4af7e" stroke="#e4af7e" stroke-width="1.51"/><path d="M142,-60L-104,-38L-65,148Z" fill="#e58814" stroke="#e58814" stroke-width="1.51"/><path d="M508,-273L324,-258L494,-54Z" fill="#efa531" stroke="#efa531" stroke-width="1.51"/><path d="M1505,-69L1308,-259L1341,-60Z" fill="#deaa7c" stroke="#deaa7c" stroke-width="1.51"/><path d="M1140,-240L1308,-259L908,-257Z" fill="#c09371" stroke="#c09371" stroke-width="1.51"/><path d="M908,-257L1534,-270L508,-273Z" fill="#b1876b" stroke="#b1876b" stroke-width="1.51"/><path d="M1732,748L1725,1166L1744,351Z" fill="#b2c3d0" stroke="#b2c3d0" stroke-width="1.51"/><path d="M1709,964L1725,1166L1732,748Z" fill="#cfd8dc" stroke="#cfd8dc" stroke-width="1.51"/><path d="M1515,1129L1725,1166L1709,964Z" fill="#cfd8dc" stroke="#cfd8dc" stroke-width="1.51"/><path d="M920,1165L1725,1166L1298,1128Z" fill="#c0ccd6" stroke="#c0ccd6" stroke-width="1.51"/><path d="M-273,553L-67,562L-73,330Z" fill="#c99359" stroke="#c99359" stroke-width="1.51"/><path d="M-273,553L-270,729L-67,562Z" fill="#b1876b" stroke="#b1876b" stroke-width="1.51"/><path d="M-277,337L-273,553L-73,330Z" fill="#d99b4c" stroke="#d99b4c" stroke-width="1.51"/><path d="M-270,729L-271,933L-88,926Z" fill="#dda97b" stroke="#dda97b" stroke-width="1.51"/><path d="M-273,553L-271,933L-270,729Z" fill="#c79874" stroke="#c79874" stroke-width="1.51"/><path d="M-96,-270L135,-251L324,-258Z" fill="#e78f1b" stroke="#e78f1b" stroke-width="1.51"/><path d="M324,-258L135,-251L296,-73Z" fill="#ea9825" stroke="#ea9825" stroke-width="1.51"/><path d="M-258,133L-277,337L-73,330Z" fill="#eea431" stroke="#eea431" stroke-width="1.51"/><path d="M-273,553L-307,-243L-271,933Z" fill="#d79a4d" stroke="#d79a4d" stroke-width="1.51"/><path d="M-258,133L-73,330L-65,148Z" fill="#ec9d2a" stroke="#ec9d2a" stroke-width="1.51"/><path d="M-96,-270L-104,-38L142,-60Z" fill="#e48611" stroke="#e48611" stroke-width="1.51"/><path d="M1505,-69L1534,-270L1308,-259Z" fill="#e4af7e" stroke="#e4af7e" stroke-width="1.51"/><path d="M1705,172L1726,-36L1516,132Z" fill="#e6b986" stroke="#e6b986" stroke-width="1.51"/><path d="M1744,351L1726,-36L1705,172Z" fill="#e7c18c" stroke="#e7c18c" stroke-width="1.51"/><path d="M1723,-235L1534,-270L1505,-69Z" fill="#e4af7e" stroke="#e4af7e" stroke-width="1.51"/><path d="M1308,-259L1534,-270L908,-257Z" fill="#cf9e76" stroke="#cf9e76" stroke-width="1.51"/><path d="M-104,-38L-258,133L-65,148Z" fill="#e78f1c" stroke="#e78f1c" stroke-width="1.51"/><path d="M-271,933L-270,1156L-99,1128Z" fill="#e4af7e" stroke="#e4af7e" stroke-width="1.51"/><path d="M-99,1128L-270,1156L126,1146Z" fill="#e4af7e" stroke="#e4af7e" stroke-width="1.51"/><path d="M126,1146L-270,1156L702,1164Z" fill="#e7bc88" stroke="#e7bc88" stroke-width="1.51"/><path d="M-307,-243L-270,1156L-271,933Z" fill="#b1876b" stroke="#b1876b" stroke-width="1.51"/><path d="M1726,-36L1723,-235L1505,-69Z" fill="#e4af7e" stroke="#e4af7e" stroke-width="1.51"/><path d="M1744,351L1723,-235L1726,-36Z" fill="#e5b280" stroke="#e5b280" stroke-width="1.51"/><path d="M-104,-38L-284,-57L-258,133Z" fill="#e58813" stroke="#e58813" stroke-width="1.51"/><path d="M135,-251L-96,-270L142,-60Z" fill="#e68a16" stroke="#e68a16" stroke-width="1.51"/><path d="M508,-273L-96,-270L324,-258Z" fill="#ea9725" stroke="#ea9725" stroke-width="1.51"/><path d="M-277,337L-307,-243L-273,553Z" fill="#ec9e2b" stroke="#ec9e2b" stroke-width="1.51"/><path d="M-258,133L-284,-57L-277,337Z" fill="#ea9523" stroke="#ea9523" stroke-width="1.51"/><path d="M-96,-270L-284,-57L-104,-38Z" fill="#e48611" stroke="#e48611" stroke-width="1.51"/><path d="M-96,-270L-307,-243L-284,-57Z" fill="#e48611" stroke="#e48611" stroke-width="1.51"/><path d="M-284,-57L-307,-243L-277,337Z" fill="#e58813" stroke="#e58813" stroke-width="1.51"/></svg>